<?xml version="1.0" encoding="UTF-8" standalone="no"?>
<!-- Created with Inkscape (http://www.inkscape.org/) -->

<svg
   width="142.80568mm"
   height="55.461189mm"
   viewBox="0 0 142.80568 55.461189"
   version="1.1"
   id="svg1"
   xml:space="preserve"
   inkscape:version="1.4 (86a8ad7, 2024-10-11)"
   sodipodi:docname="logo nunsdly final.svg"
   xmlns:inkscape="http://www.inkscape.org/namespaces/inkscape"
   xmlns:sodipodi="http://sodipodi.sourceforge.net/DTD/sodipodi-0.dtd"
   xmlns:xlink="http://www.w3.org/1999/xlink"
   xmlns="http://www.w3.org/2000/svg"
   xmlns:svg="http://www.w3.org/2000/svg"><sodipodi:namedview
     id="namedview1"
     pagecolor="#ffffff"
     bordercolor="#000000"
     borderopacity="0.25"
     inkscape:showpageshadow="2"
     inkscape:pageopacity="0.0"
     inkscape:pagecheckerboard="0"
     inkscape:deskcolor="#d1d1d1"
     inkscape:document-units="mm"
     inkscape:zoom="0.51339147"
     inkscape:cx="-55.513193"
     inkscape:cy="202.57446"
     inkscape:window-width="1141"
     inkscape:window-height="1040"
     inkscape:window-x="0"
     inkscape:window-y="0"
     inkscape:window-maximized="0"
     inkscape:current-layer="layer1"
     inkscape:export-bgcolor="#ffffff00" /><defs
     id="defs1"><linearGradient
       id="linearGradient16"
       inkscape:collect="always"><stop
         style="stop-color:#b84dfe;stop-opacity:1;"
         offset="0.35593224"
         id="stop15" /><stop
         style="stop-color:#9e54ff;stop-opacity:1;"
         offset="1"
         id="stop16" /></linearGradient><linearGradient
       inkscape:collect="always"
       xlink:href="#linearGradient16"
       id="linearGradient15"
       gradientUnits="userSpaceOnUse"
       x1="165.00975"
       y1="38.295547"
       x2="165.00975"
       y2="72.917099"
       gradientTransform="translate(2.9412358,53.179009)" /></defs><g
     inkscape:label="Camada 1"
     inkscape:groupmode="layer"
     id="layer1"
     transform="translate(-42.456083,-76.284137)"><path
       style="fill:#34d399;fill-opacity:1;stroke:#000000;stroke-opacity:1;stroke-width:0.4;stroke-dasharray:none;stroke-dashoffset:0"
       d="m 151.99718,110.06344 c -0.72477,-0.35965 -0.73247,-0.52272 -0.79501,-16.817543 l -0.0609,-15.872694 0.40487,-0.472611 c 0.38037,-0.444003 0.54538,-0.47261 2.72607,-0.47261 h 2.3212 l 0.42898,0.5806 0.42899,0.580601 0.0416,12.456074 c 0.0706,21.162643 0.10817,19.099523 -0.35747,19.641443 -0.44495,0.51785 -4.28635,0.7995 -5.13827,0.37674 z"
       id="path10" /><path
       style="fill:#f472b6;fill-opacity:1;stroke:#000000;stroke-opacity:1;stroke-width:0.4;stroke-dasharray:none;stroke-dashoffset:0"
       d="m 106.4161,110.11264 c -0.78749,-0.061 -1.08828,-0.18827 -1.42199,-0.60166 l -0.42325,-0.52428 -0.0923,-7.17439 c -0.11724,-9.113103 -0.29935,-9.761043 -2.74352,-9.761043 -2.92288,0 -3.29654,1.18249 -3.29654,10.432323 0,8.19839 0.2579,7.57071 -3.110614,7.57071 -3.472468,0 -3.130431,1.35428 -3.07065,-12.158019 l 0.04891,-11.054334 0.498724,-0.49931 c 1.264049,-1.26553 5.04231,-0.52994 5.14117,1.00095 0.0461,0.71383 0.004,0.72434 0.99383,-0.24743 2.66785,-2.618857 7.34286,-2.616777 9.67871,0.004 l 0.89007,0.99876 1.13657,-0.9442 c 4.90899,-4.078074 11.03484,-1.74406 12.30756,4.68931 0.20607,1.04161 0.24847,15.332623 0.0494,16.635683 -0.2785,1.82262 -4.1919,2.55213 -5.68354,1.05948 l -0.48301,-0.48334 -0.0889,-7.31259 c -0.0862,-7.095873 -0.10078,-7.338523 -0.49056,-8.187783 -0.98695,-2.1504 -3.92665,-2.04425 -5.02108,0.18131 l -0.44298,0.90082 -0.0582,7.273343 c -0.0712,8.89668 0.1141,8.54468 -4.31777,8.20138 z"
       id="path11" /><path
       style="fill:#5a7ff2;fill-opacity:1;stroke:#000000;stroke-opacity:1;stroke-width:0.4;stroke-dasharray:none;stroke-dashoffset:0"
       d="m 43.503539,109.95673 c -0.985566,-0.62405 -0.962591,-0.27095 -1.023672,-15.732683 -0.07355,-18.619245 -0.237497,-17.899561 4.077506,-17.899561 3.810521,0 3.856194,0.04873 8.436691,9.001511 1.921575,3.75581 3.632624,7.06301 3.80233,7.34934 0.169707,0.28634 0.57997,1.12441 0.911695,1.86239 l 0.603138,1.34177 0.08887,-9.15218 0.08888,-9.152181 0.492363,-0.573592 c 0.608304,-0.708661 4.139425,-0.980217 5.314374,-0.408695 1.259129,0.612469 1.214403,-9.2e-5 1.214094,16.627818 -3.38e-4,18.191183 0.238661,17.045833 -3.554715,17.035193 -3.573807,-0.01 -3.98645,-0.33127 -6.761971,-5.2642 C 51.48776,94.851517 50.006309,92.258197 49.91901,92.258107 c -0.05225,-6e-5 -0.07235,3.61739 -0.04466,8.038773 0.05446,8.69731 0.03632,8.89197 -0.890222,9.54962 -0.734645,0.52145 -4.705032,0.60131 -5.480585,0.11023 z"
       id="path12" /><path
       style="fill:#a78bfa;fill-opacity:1;stroke:#000000;stroke-opacity:1;stroke-width:0.4;stroke-dasharray:none;stroke-dashoffset:0"
       d="m 76.042062,110.27253 c -4.734052,-1.02429 -5.681401,-3.51518 -5.685358,-14.948623 -0.0034,-9.85524 -0.15983,-9.37711 3.067705,-9.37711 h 2.118103 l 0.419302,0.61218 0.419302,0.61219 0.05266,7.35467 0.05266,7.354673 0.427143,0.66274 c 0.991063,1.53767 3.691904,1.7508 5.037749,0.39753 1.082162,-1.08813 1.103819,-1.24972 1.200716,-8.959083 l 0.08888,-7.07109 0.43092,-0.53364 c 0.416057,-0.51523 0.503465,-0.53364 2.534107,-0.53364 3.32186,0 3.104209,-0.93804 3.089013,13.313184 l -0.01056,9.898819 -0.515736,0.51652 c -0.49479,0.49555 -0.597366,0.51373 -2.525643,0.44776 -2.192308,-0.075 -2.42973,-0.20528 -2.670983,-1.46556 -0.133128,-0.69544 -0.02846,-0.70856 -1.11062,0.13924 -1.829136,1.433 -4.29338,2.03924 -6.419359,1.57924 z"
       id="path13" /><path
       style="fill:#fbbf24;fill-opacity:1;stroke:#000000;stroke-opacity:1;stroke-width:0.4;stroke-dasharray:none;stroke-dashoffset:0"
       d="m 133.09967,110.28349 c -8.80214,-2.79378 -10.6928,-16.804013 -3.11699,-23.097523 3.39649,-2.821591 7.65455,-3.00826 10.88112,-0.47702 0.40866,0.3206 0.7886,0.5829 0.84431,0.5829 0.0557,0 0.10129,-2.1831 0.10129,-4.851346 0,-6.247433 -0.12776,-5.985569 2.9615,-6.070196 3.73322,-0.102266 3.41505,-1.714273 3.42745,17.365222 0.012,18.440453 0.36022,16.422243 -2.83365,16.422243 -2.32581,0 -3.02205,-0.36021 -3.02205,-1.56352 0,-0.41148 -0.42992,-0.55745 -0.615,-0.20882 -0.89574,1.68727 -5.85489,2.77823 -8.62798,1.89806 z m 4.58582,-5.61513 c 1.1006,-1.19371 0.44011,-3.92597 -0.94906,-3.92597 -1.36533,0 -2.14395,2.59437 -1.14875,3.82764 0.53178,0.65898 1.53742,0.70612 2.09781,0.0983 z m 4.59753,-5.801299 c 1.28074,-0.56688 1.03412,-2.697054 -0.34603,-2.988704 -1.65575,-0.34991 -10.95059,-0.006 -11.22381,0.41501 -0.35774,0.55153 -0.35801,2.052124 -4.3e-4,2.468394 0.34227,0.39847 10.69505,0.49269 11.57027,0.1053 z m -4.40923,-4.895424 c 0.50636,-0.66092 0.4795,-2.46311 -0.0468,-3.14014 -0.9583,-1.23275 -2.5682,-0.33849 -2.62624,1.45882 -0.0674,2.08611 1.57261,3.11764 2.67304,1.68132 z"
       id="path14" /><path
       style="fill:url(#linearGradient15);fill-opacity:1;fill-rule:nonzero;stroke:#000000;stroke-opacity:1;stroke-width:0.4;stroke-dasharray:none;stroke-dashoffset:0"
       d="m 163.40597,131.43607 c -15.39519,-2.22547 -17.37367,-12.07666 -3.15411,-15.70478 7.54088,-1.92405 8.249,-3.70604 5.01333,-12.61617 -6.2945,-17.333333 -6.28686,-17.271793 -2.14384,-17.271793 2.88242,0 2.91579,0.0272 3.81183,3.10397 1.18852,4.08112 3.42769,11.373133 3.52834,11.490313 0.0553,0.0643 1.00076,-3.030113 2.10111,-6.876533 2.42729,-8.48489 1.93812,-7.71775 4.92118,-7.71775 3.92526,0 3.93256,0.0346 1.57121,7.44953 -2.31037,7.254863 -3.87633,12.189253 -4.8656,15.331683 -2.7102,8.60897 -4.64474,10.52403 -12.44078,12.31554 -5.68761,1.30699 -5.70526,3.01588 -0.0485,4.69722 11.25444,3.34512 22.39685,-5.20299 18.58989,-14.26159 -0.57991,-1.37989 -0.49096,-1.7137 0.55457,-2.08113 4.0941,-1.43879 5.89019,6.32458 3.00145,12.97333 -3.10561,7.14791 -10.73688,10.57083 -20.44007,9.16816 z"
       id="path15"
       inkscape:export-filename="path15.png"
       inkscape:export-xdpi="96"
       inkscape:export-ydpi="96" /></g></svg>
